# xmcd
#
# Track frame offsets: 
#        150
#        19497
#        35502
#        51077
#        70636
#        85666
#        101609
#        122293
#        136696
#        158341
#        170996
#        190499
#        207600
#
# Disc length: 2969 seconds
#
# Revision: 0
# Processed by: cddbd v1.5.2PL0 Copyright (c) Steve Scherf et al.
# Submitted via: ExactAudioCopyFreeDBPlugin 1.0
#
DISCID=ac0b970d
DTITLE=Dany Franchi - Problem Child
DYEAR=2017
DGENRE=Blues
TTITLE0=Back To The River
TTITLE1=Give Me A Sign
TTITLE2=Big Town Playboy
TTITLE3=Real Love
TTITLE4=Run Around
TTITLE5=You Don't Want Me
TTITLE6=Don't Steal My Time
TTITLE7=Sensation
TTITLE8=My Only One
TTITLE9=Big Kind Hearted Man
TTITLE10=Everything Gonna Be Alright
TTITLE11=Wanna Know
TTITLE12=Problem Child
EXTD=
EXTT0=
EXTT1=
EXTT2=
EXTT3=
EXTT4=
EXTT5=
EXTT6=
EXTT7=
EXTT8=
EXTT9=
EXTT10=
EXTT11=
EXTT12=
PLAYORDER=
